# xmcd
#
# Track frame offsets:
#	150
#	6974
#	23508
#	40976
#	60896
#	78544
#	99383
#	117517
#	139163
#	153231
#	167812
#	180271
#	197603
#
# Disc length: 2903 seconds
#
# Revision: 0
# Processed by: cddbd v1.5.2PL0 Copyright (c) Steve Scherf et al.
# Submitted via: EasyCDDAExtractor 10.1.0.1
#
DISCID=980b550d
DTITLE=René Froger - Doe Maar Gewoon - Live In Ahoy
DYEAR=2007
DGENRE=Pop
TTITLE0=Ouverture Ahoy 2007
TTITLE1=The number one
TTITLE2=Just say hello
TTITLE3=Winter in America
TTITLE4=Your place or mine
TTITLE5=Here in my heart
TTITLE6=Daar sta je dan
TTITLE7=Ga
TTITLE8=Amsterdam Amsterdam
TTITLE9=Doe maar gewoon
TTITLE10=In dreams
TTITLE11=Crazy way about you
TTITLE12=Over de top
EXTD=
EXTT0=
EXTT1=
EXTT2=
EXTT3=
EXTT4=
EXTT5=
EXTT6=
EXTT7=
EXTT8=
EXTT9=
EXTT10=
EXTT11=
EXTT12=
PLAYORDER=
